<svg xmlns="http://www.w3.org/2000/svg" width="1280" height="800" viewBox="0 0 960 600" version="1.2"><defs><clipPath id="a"><path d="M304.1 441H366v33h-61.9zm0 0"/></clipPath><clipPath id="b"><path d="M330 342h126v139H330zm0 0"/></clipPath><clipPath id="c"><path d="M655.9 135H718v33h-62.1zm0 0"/></clipPath><clipPath id="d"><path d="M682 36h126v139H682zm0 0"/></clipPath><clipPath id="e"><path d="M0 179h77v138.5H0zm0 0"/></clipPath></defs><path fill="#fff" d="M0 0h960v600H0z"/><path fill="#fff" d="M0 0h960v600H0z"/><path fill="#fff" d="M0 0h960v600H0z"/><path fill="#ffdead" d="M0 0h960v600H0z"/><g clip-path="url(#a)"><path d="M365.6 471.3l-61.5 2 31.5-32 30 30zm0 0" fill="#f15a24"/></g><path d="M644.4 312.4A162.5 162.5 0 11322 271a162.5 162.5 0 01322.4 41.4" fill="#f15a24"/><path d="M524.6 245.5c10.7 11.3.2 38.2.2 38.2s-10.4 38-70 87.1L443.5 360l75.7-77.4 1.5-2c2-3.2 3.6-35.2 3.8-35" fill="#999"/><path d="M165 87.5c8 8.5 0 28.6 0 28.6s-7.7 28.4-52.3 65.2l-8.4-8.2 56.7-57.8 1-1.5c1.6-2.5 2.8-26.4 3-26.3zm0 0" transform="matrix(1.33677 0 0 1.33652 304.1 128.5)" fill="none" stroke-width="1.9" stroke-linecap="round" stroke-linejoin="round" stroke="#fff"/><path d="M92.1 161.1l72.8-73.8c3.7 4.4 4.4 9.1 3.4 15.9-.8 4.6-8.8 14-8.8 14l-55.2 56" transform="matrix(1.33677 0 0 1.33652 304.1 128.5)" fill="#666" stroke-width="1.2" stroke-linecap="round" stroke-linejoin="round" stroke="#fff"/><path d="M524.6 245.6l-97.4 98.2.2-.2-24.2-23.8c50.4-62.6 83-74.3 83-74.3s21.2-8.3 36.4-1.9c1.1.6 1.6 1 2 2" fill="#ff931e"/><path d="M165 87.6L92 161l.1-.1h0l-18-17.8c37.6-47 62-55.7 62-55.7s15.9-6.2 27.2-1.4c.9.5 1.3.8 1.6 1.5zm0 0" transform="matrix(1.33677 0 0 1.33652 304.1 128.5)" fill="none" stroke-width="1.9" stroke-linecap="round" stroke-linejoin="round" stroke="#fff"/><path d="M454.7 370.8c-23.2 19.2-53 49.3-93.4 70.2l9 38.5-38.1-37.6 95-98" fill="#999"/><g clip-path="url(#b)"><path d="M112.7 181.3c-17.4 14.3-39.7 36.8-70 52.5l6.8 28.8L21 234.5 92 161.1" transform="matrix(1.33677 0 0 1.33652 304.1 128.5)" fill="none" stroke-width="1.9" stroke-linecap="round" stroke-linejoin="round" stroke="#fff"/></g><path d="M74.6 143.4L92.3 161l-40.8 8.8 22.7-26.7.4.3zm0 0" transform="matrix(1.33677 0 0 1.33652 304.1 128.5)" fill="#f15a24" stroke-width="1.9" stroke-linecap="round" stroke-linejoin="round" stroke="#fff"/><path d="M515.3 217a38 38 0 1075.8 8.4 38 38 0 00-75.8-8.4" fill="#999"/><path d="M158 66.2a28.5 28.5 0 1056.7 6.3 28.5 28.5 0 00-56.7-6.3zm0 0" transform="matrix(1.33677 0 0 1.33652 304.1 128.5)" fill="none" stroke-width="1.9" stroke-linecap="round" stroke-linejoin="round" stroke="#fff"/><path d="M585.6 242.3c7-10.3 6.6-25.6 5.2-30.2a38 38 0 00-12.3-19.3l-35.7 32.9s27.4 29.5 28.1 29.6c.3 0 8.3-3.6 14.7-13" fill="#666"/><path d="M210.6 85.1a32 32 0 003.9-22.5c-1.3-4.2-4.2-11-9.3-14.5l-26.7 24.6s20.6 22 21.1 22.1c.2 0 6.2-2.7 11-9.7zM205.2 66s2.5 6.3-.7 11.2zm0 0" transform="matrix(1.33677 0 0 1.33652 304.1 128.5)" fill="none" stroke-width="1.9" stroke-linecap="round" stroke-linejoin="round" stroke="#fff"/><path d="M444.4 360l-39.4 7 23.8-24.8" fill="#666"/><path d="M105 173.2l-29.5 5.2 17.8-18.5m-18-16.4l37.5 35.3" transform="matrix(1.33677 0 0 1.33652 304.1 128.5)" fill="none" stroke-width="1.9" stroke-linecap="round" stroke-linejoin="round" stroke="#fff"/><path d="M936.8 565.3A162.5 162.5 0 11614.4 524a162.5 162.5 0 01322.4 41.4" fill="#ffdead"/><path d="M817 498.4c10.7 11.4.2 38.2.2 38.2s-10.4 38-70.1 87.2l-11.2-11 75.8-77.3 1.5-2c2-3.3 3.6-35.3 3.8-35.1" fill="#999"/><path d="M165 87.5c8 8.5 0 28.6 0 28.6s-7.7 28.4-52.3 65.2l-8.4-8.1 56.7-58 1-1.4c1.6-2.5 2.8-26.4 3-26.3zm0 0" transform="matrix(1.33694 0 0 1.33682 596.5 381.4)" fill="none" stroke-width="1.9" stroke-linecap="round" stroke-linejoin="round" stroke="#fff"/><path d="M92.1 161.1l72.8-73.8c3.7 4.4 4.4 9.1 3.4 15.9-.8 4.6-8.8 14-8.8 14l-55.2 56" transform="matrix(1.33694 0 0 1.33682 596.5 381.4)" fill="#666" stroke-width="1.2" stroke-linecap="round" stroke-linejoin="round" stroke="#fff"/><path d="M817 498.5l-97.4 98.3.2-.2-24.2-23.8c50.4-62.7 83-74.4 83-74.4s21.2-8.3 36.3-1.9c1.2.6 1.7 1 2.1 2" fill="#ff931e"/><path d="M165 87.6L92 161l.1-.1h0l-18-17.8c37.6-47 62-55.7 62-55.7s15.9-6.2 27.2-1.4c.9.5 1.3.8 1.6 1.5zm0 0" transform="matrix(1.33694 0 0 1.33682 596.5 381.4)" fill="none" stroke-width="1.9" stroke-linecap="round" stroke-linejoin="round" stroke="#fff"/><path d="M112.7 181.3c-17.4 14.3-39.7 36.8-70 52.5l6.8 28.8L21 234.5 92 161.1" transform="matrix(1.33694 0 0 1.33682 596.5 381.4)" fill="#999" stroke-width="1.9" stroke-linecap="round" stroke-linejoin="round" stroke="#fff"/><path d="M74.6 143.4L92.3 161l-40.8 8.8 22.7-26.7.4.3zm0 0" transform="matrix(1.33694 0 0 1.33682 596.5 381.4)" fill="#ffdead" stroke-width="1.9" stroke-linecap="round" stroke-linejoin="round" stroke="#fff"/><path d="M807.7 470a38.1 38.1 0 1075.8 8.3 38.1 38.1 0 00-75.8-8.4" fill="#999"/><path d="M158 66.2a28.5 28.5 0 1056.7 6.3 28.5 28.5 0 00-56.7-6.3zm0 0" transform="matrix(1.33694 0 0 1.33682 596.5 381.4)" fill="none" stroke-width="1.9" stroke-linecap="round" stroke-linejoin="round" stroke="#fff"/><path d="M878 495.2c7-10.3 6.6-25.6 5.2-30.2a38 38 0 00-12.3-19.3l-35.7 32.9s27.4 29.5 28.1 29.6c.3 0 8.3-3.6 14.7-13" fill="#666"/><path d="M210.6 85.1a32 32 0 003.9-22.5c-1.3-4.2-4.2-11-9.3-14.5l-26.7 24.6s20.6 22 21.1 22.1c.2 0 6.2-2.7 11-9.7zM205.2 66s2.5 6.3-.7 11.2zm0 0" transform="matrix(1.33694 0 0 1.33682 596.5 381.4)" fill="none" stroke-width="1.9" stroke-linecap="round" stroke-linejoin="round" stroke="#fff"/><path d="M736.8 612.9l-39.4 7 23.8-24.7" fill="#666"/><path d="M105 173.2l-29.5 5.2 17.8-18.5m-18-16.4l37.5 35.3" transform="matrix(1.33694 0 0 1.33682 596.5 381.4)" fill="none" stroke-width="1.9" stroke-linecap="round" stroke-linejoin="round" stroke="#fff"/><path d="M184.3 520.4A162.5 162.5 0 11-138.3 479a162.5 162.5 0 01322.4 41.4" fill="#ffdead"/><path d="M64.5 453.5c10.6 11.3.1 38.2.1 38.2s-10.4 38-70 87.1L-16.7 568 59 490.5l1.5-2c2-3.2 3.7-35.3 3.9-35" fill="#999"/><path d="M165 87.5c8 8.5 0 28.6 0 28.6s-7.7 28.4-52.3 65.2l-8.4-8.1 56.7-58 1-1.4c1.6-2.5 2.8-26.4 3-26.3zm0 0" transform="matrix(1.33694 0 0 1.33682 -156.1 336.5)" fill="none" stroke-width="1.9" stroke-linecap="round" stroke-linejoin="round" stroke="#fff"/><path d="M92.1 161.1l72.8-73.8c3.7 4.4 4.4 9.1 3.4 15.9-.7 4.6-8.8 14-8.8 14l-55.2 56" transform="matrix(1.33694 0 0 1.33682 -156.1 336.5)" fill="#666" stroke-width="1.2" stroke-linecap="round" stroke-linejoin="round" stroke="#fff"/><path d="M64.5 453.5L-33 551.8l.2-.2-24.2-23.8c50.4-62.7 83-74.4 83-74.4s21.2-8.2 36.4-1.8c1.1.6 1.6 1 2 2" fill="#ff931e"/><path d="M165 87.6L92 161l.1-.1h0l-18-17.8c37.6-47 62-55.7 62-55.7s15.9-6.2 27.2-1.4c.9.5 1.3.8 1.6 1.5zm0 0" transform="matrix(1.33694 0 0 1.33682 -156.1 336.5)" fill="none" stroke-width="1.9" stroke-linecap="round" stroke-linejoin="round" stroke="#fff"/><path d="M55.2 425a38.1 38.1 0 1075.7 8.4 38.1 38.1 0 00-75.7-8.4" fill="#999"/><path d="M158 66.2a28.5 28.5 0 1056.7 6.3 28.5 28.5 0 00-56.7-6.3zm0 0" transform="matrix(1.33694 0 0 1.33682 -156.1 336.5)" fill="none" stroke-width="1.9" stroke-linecap="round" stroke-linejoin="round" stroke="#fff"/><path d="M125.4 450.3c7-10.3 6.7-25.7 5.2-30.2a38 38 0 00-12.3-19.3l-35.7 32.8s27.4 29.5 28.1 29.6c.3 0 8.3-3.6 14.7-13" fill="#666"/><path d="M210.6 85.1a32 32 0 003.9-22.5c-1.3-4.2-4.2-11-9.3-14.5l-26.7 24.6s20.6 22 21.1 22.1c.2 0 6.2-2.7 11-9.7zM205.2 66s2.5 6.3-.7 11.2zm0 0" transform="matrix(1.33694 0 0 1.33682 -156.1 336.5)" fill="none" stroke-width="1.9" stroke-linecap="round" stroke-linejoin="round" stroke="#fff"/><g clip-path="url(#c)"><path d="M717.4 165.2l-61.5 2.2 31.5-32 30 29.8zm0 0" fill="#ffdead"/></g><path d="M996.3 6.3A162.5 162.5 0 11673.8-35 162.5 162.5 0 01996.3 6.3" fill="#ffdead"/><path d="M876.5-60.6c10.7 11.4.1 38.2.1 38.2s-10.4 38-70 87.2l-11.2-11L871-23.4l1.5-2c2-3.3 3.7-35.3 3.9-35" fill="#999"/><path d="M165 87.5c8 8.5 0 28.6 0 28.6s-7.7 28.4-52.3 65.2l-8.4-8.2 56.7-57.9 1-1.4c1.6-2.5 2.8-26.4 3-26.3zm0 0" transform="matrix(1.33694 0 0 1.33682 655.9 -177.6)" fill="none" stroke-width="1.9" stroke-linecap="round" stroke-linejoin="round" stroke="#fff"/><path d="M92.1 161.1l72.8-73.8c3.7 4.4 4.4 9.1 3.4 15.9-.7 4.6-8.8 14-8.8 14l-55.2 56" transform="matrix(1.33694 0 0 1.33682 655.9 -177.6)" fill="#666" stroke-width="1.2" stroke-linecap="round" stroke-linejoin="round" stroke="#fff"/><path d="M876.5-60.5L779 37.8l.2-.2L755 13.8c50.4-62.7 83-74.4 83-74.4s21.3-8.3 36.4-1.9c1.1.6 1.7 1 2 2" fill="#ff931e"/><path d="M165 87.6L92 161l.1-.1h0l-18-17.8c37.6-47 62-55.7 62-55.7s15.9-6.2 27.2-1.4c.9.5 1.3.8 1.6 1.5zm0 0" transform="matrix(1.33694 0 0 1.33682 655.9 -177.6)" fill="none" stroke-width="1.9" stroke-linecap="round" stroke-linejoin="round" stroke="#fff"/><path d="M806.5 64.8c-23.2 19.1-53 49.2-93.4 70.2l9 38.4L684 136l95-98.1" fill="#999"/><g clip-path="url(#d)"><path d="M112.7 181.3c-17.4 14.3-39.7 36.8-70 52.5l6.8 28.8L21 234.5 92 161.1" transform="matrix(1.33694 0 0 1.33682 655.9 -177.6)" fill="none" stroke-width="1.9" stroke-linecap="round" stroke-linejoin="round" stroke="#fff"/></g><path d="M74.6 143.4L92.3 161l-40.8 8.8 22.7-26.7.4.3zm0 0" transform="matrix(1.33694 0 0 1.33682 655.9 -177.6)" fill="#ffdead" stroke-width="1.9" stroke-linecap="round" stroke-linejoin="round" stroke="#fff"/><path d="M796.2 53.9l-39.4 7 23.8-24.7" fill="#666"/><path d="M105 173.2l-29.5 5.2 17.8-18.5m-18-16.4l37.5 35.3" transform="matrix(1.33694 0 0 1.33682 655.9 -177.6)" fill="none" stroke-width="1.9" stroke-linecap="round" stroke-linejoin="round" stroke="#fff"/><path d="M265.1 148.8a162.5 162.5 0 11-322.4-41.3 162.5 162.5 0 01322.4 41.3" fill="#ffdead"/><path d="M145.4 82c10.6 11.3.1 38.1.1 38.1s-10.4 38-70 87.2l-11.2-10.9L140 119l1.5-2c2-3.3 3.7-35.3 3.9-35" fill="#999"/><path d="M165 87.5c8 8.5 0 28.6 0 28.6s-7.7 28.4-52.3 65.2l-8.4-8.1 56.7-58 1-1.4c1.6-2.5 2.8-26.4 3-26.3zm0 0" transform="matrix(1.33694 0 0 1.33682 -75.2 -35)" fill="none" stroke-width="1.9" stroke-linecap="round" stroke-linejoin="round" stroke="#fff"/><path d="M92.1 161.1l72.8-73.8c3.7 4.4 4.4 9.1 3.4 15.9-.8 4.6-8.8 14-8.8 14l-55.2 56" transform="matrix(1.33694 0 0 1.33682 -75.2 -35)" fill="#666" stroke-width="1.2" stroke-linecap="round" stroke-linejoin="round" stroke="#fff"/><path d="M145.4 82l-97.5 98.3.2-.2-24.2-23.8c50.4-62.7 83-74.4 83-74.4s21.2-8.3 36.4-1.8c1.1.6 1.6 1 2 2" fill="#ff931e"/><path d="M165 87.6L92 161l.1-.1h0l-18-17.8c37.6-47 62-55.7 62-55.7s15.9-6.2 27.2-1.4c.9.5 1.3.8 1.6 1.5zm0 0" transform="matrix(1.33694 0 0 1.33682 -75.2 -35)" fill="none" stroke-width="1.9" stroke-linecap="round" stroke-linejoin="round" stroke="#fff"/><path d="M75.4 207.3c-23.2 19.2-53 49.2-93.4 70.2l9 38.5-38.2-37.6L48 180.3" fill="#999"/><g clip-path="url(#e)"><path d="M112.7 181.3c-17.4 14.3-39.7 36.8-70 52.5l6.8 28.8L21 234.5 92 161.1" transform="matrix(1.33694 0 0 1.33682 -75.2 -35)" fill="none" stroke-width="1.9" stroke-linecap="round" stroke-linejoin="round" stroke="#fff"/></g><path d="M74.6 143.4L92.3 161l-40.8 8.8 22.7-26.7.4.3zm0 0" transform="matrix(1.33694 0 0 1.33682 -75.2 -35)" fill="#ffdead" stroke-width="1.9" stroke-linecap="round" stroke-linejoin="round" stroke="#fff"/><path d="M136 53.5a38.1 38.1 0 1075.8 8.4 38.1 38.1 0 00-75.7-8.4" fill="#999"/><path d="M158 66.2a28.5 28.5 0 1056.7 6.3 28.5 28.5 0 00-56.7-6.3zm0 0" transform="matrix(1.33694 0 0 1.33682 -75.2 -35)" fill="none" stroke-width="1.9" stroke-linecap="round" stroke-linejoin="round" stroke="#fff"/><path d="M206.3 78.7c7-10.2 6.7-25.6 5.3-30.1a38 38 0 00-12.4-19.4l-35.7 33s27.4 29.4 28.1 29.5c.3 0 8.3-3.6 14.7-13" fill="#666"/><path d="M210.6 85.1a32 32 0 003.9-22.5c-1.3-4.2-4.2-11-9.3-14.5l-26.7 24.6s20.6 22 21.1 22.1c.2 0 6.2-2.7 11-9.7zM205.2 66s2.5 6.3-.7 11.2zm0 0" transform="matrix(1.33694 0 0 1.33682 -75.2 -35)" fill="none" stroke-width="1.9" stroke-linecap="round" stroke-linejoin="round" stroke="#fff"/><path d="M65.1 196.4l-39.4 7 23.8-24.7" fill="#666"/><path d="M105 173.2l-29.5 5.2 17.8-18.5m-18-16.4l37.5 35.3" transform="matrix(1.33694 0 0 1.33682 -75.2 -35)" fill="none" stroke-width="1.9" stroke-linecap="round" stroke-linejoin="round" stroke="#fff"/></svg>